<svg xmlns="http://www.w3.org/2000/svg" width="66.634" height="80.001" viewBox="0 0 66.634 80.001"><defs><style>.a{fill:#fff;}</style></defs><g transform="translate(14.552)"><path class="a" d="M180.887,5.457,171.417,0l-9.47,5.457L152.477,0l-9.47,5.457-7.1-4.092v64.3h42.268v9.433a4.907,4.907,0,1,0,9.814,0V1.365ZM141.674,42.824V38.086h20.273v4.738ZM182.22,32.479H141.674V27.741H182.22Zm0-10.345H141.674V17.4H182.22Z" transform="translate(-135.906)"/></g><g transform="translate(0 70.398)"><path class="a" d="M94.855,455.24v-4.7H42.773v4.7a4.913,4.913,0,0,0,4.907,4.907H96.2A9.586,9.586,0,0,1,94.855,455.24Z" transform="translate(-42.773 -450.544)"/></g></svg>