<svg xmlns="http://www.w3.org/2000/svg" width="70.91" height="84.39" viewBox="0 0 70.91 84.39"><defs><style>.a{fill:#fff;}</style></defs><g transform="translate(0 0)"><path class="a" d="M87.931,21.729c-.043-2.278-.085-4.431-.085-6.513a2.954,2.954,0,0,0-2.954-2.954c-12.633,0-22.251-3.63-30.268-11.425a2.953,2.953,0,0,0-4.118,0c-8.016,7.8-17.633,11.425-30.265,11.425a2.954,2.954,0,0,0-2.954,2.954c0,2.083-.041,4.236-.085,6.515-.4,21.2-.959,50.242,34.395,62.5a2.951,2.951,0,0,0,1.935,0C88.89,71.972,88.336,42.933,87.931,21.729ZM52.566,78.3C22.244,67.287,22.7,43.158,23.11,21.843c.024-1.279.048-2.519.065-3.734,11.831-.5,21.292-4.085,29.391-11.14,8.1,7.055,17.562,10.641,29.394,11.14.017,1.215.04,2.454.065,3.732C82.431,43.157,82.889,67.286,52.566,78.3Z" transform="translate(-17.112 0)"/><path class="a" d="M93.892,79.751,79.635,94.007l-6.084-6.084A2.954,2.954,0,0,0,69.374,92.1l8.172,8.172a2.954,2.954,0,0,0,4.177,0L98.069,83.928a2.954,2.954,0,1,0-4.177-4.178Z" transform="translate(-48.267 -47.817)"/></g></svg>