<svg xmlns="http://www.w3.org/2000/svg" width="75.148" height="98.639" viewBox="0 0 75.148 98.639"><defs><style>.a{fill:#fff;}</style></defs><g transform="translate(0 0)"><ellipse class="a" cx="17.342" cy="17.342" rx="17.342" ry="17.342" transform="translate(20.233 20.216)"/><path class="a" d="M131.992,30.555a3.021,3.021,0,0,1-.979-3.7c1.657-3.839.968-6.495.054-8.129-1.346-2.241-3.74-3.542-7.037-3.864a3.118,3.118,0,0,1-2.794-2.732c-.33-3.367-1.631-5.761-3.954-7.155-1.55-.869-4.217-1.558-8.025.093a3.049,3.049,0,0,1-3.74-.993C101.4-1.351,95.683-1.374,91.528,4.1a3.019,3.019,0,0,1-3.7.979C83.995,3.421,81.333,4.1,79.7,5.022c-2.241,1.346-3.542,3.74-3.864,7.037A3.118,3.118,0,0,1,73.1,14.853c-3.367.33-5.761,1.631-7.155,3.954-.867,1.552-1.555,4.208.093,8.027a3.037,3.037,0,0,1-.993,3.737c-2.712,2.06-4.09,4.409-4.09,6.986s1.377,4.925,4.112,7a3.021,3.021,0,0,1,.979,3.7c-1.657,3.839-.968,6.495-.054,8.129,1.346,2.241,3.74,3.542,7.037,3.864a3.118,3.118,0,0,1,2.794,2.732c.33,3.367,1.631,5.761,3.954,7.155,1.55.869,4.208,1.555,8.027-.093a3.037,3.037,0,0,1,3.737.993c2.06,2.712,4.409,4.09,6.986,4.09s4.925-1.377,7-4.112a3.03,3.03,0,0,1,3.7-.979c3.839,1.657,6.5.968,8.129.054,2.241-1.346,3.542-3.74,3.864-7.037a3.118,3.118,0,0,1,2.732-2.794c3.367-.33,5.761-1.631,7.155-3.954.867-1.552,1.555-4.208-.093-8.027a3.037,3.037,0,0,1,.993-3.737c2.712-2.06,4.09-4.409,4.09-6.986s-1.378-4.925-4.112-7ZM98.531,60.68a23.122,23.122,0,1,1,23.122-23.122A23.149,23.149,0,0,1,98.531,60.68Z" transform="translate(-60.957 0.001)"/></g><path class="a" d="M112.437,382.744a15.95,15.95,0,0,1-4.81.771,13.175,13.175,0,0,1-6.452-1.648,14.318,14.318,0,0,1-2.959-2.462l-6.717,9.4a2.888,2.888,0,0,0,2.351,4.57h9.775l4.982,9.964a2.891,2.891,0,0,0,5.171,0L121.7,387.5a13.791,13.791,0,0,1-9.26-4.758Z" transform="translate(-85.179 -306.298)"/><path class="a" d="M284.945,379.558a13.7,13.7,0,0,1-2.748,2.3,13.382,13.382,0,0,1-6.7,1.775,16.01,16.01,0,0,1-4.8-.768,13.829,13.829,0,0,1-9.254,4.761l7.919,15.838a2.891,2.891,0,0,0,5.171,0l4.982-9.964h9.775a2.888,2.888,0,0,0,2.351-4.57Z" transform="translate(-222.812 -306.423)"/></svg>